<svg xmlns="http://www.w3.org/2000/svg" x="0px" y="0px" width="100" height="100" viewBox="0 0 24 24">
  <path d="M 11.964844 2 A 0.50005 0.50005 0 0 0 11.746094 2.0683594 L 2.2460938 7.65625 A 0.50078136 0.50078136 0 1 0 2.7539062 8.5195312 L 3 8.375 L 3 20.5 A 0.50005 0.50005 0 0 0 3.5 21 L 20.5 21 A 0.50005 0.50005 0 0 0 21 20.5 L 21 8.375 L 21.246094 8.5195312 A 0.50078125 0.50078125 0 0 0 21.753906 7.65625 L 12.253906 2.0683594 A 0.50005 0.50005 0 0 0 12.015625 2 A 0.50005 0.50005 0 0 0 11.964844 2 z M 12 3.0800781 L 20 7.7871094 L 20 20 L 16 20 L 16 11.5 A 0.50005 0.50005 0 0 0 15.5 11 L 8.5 11 A 0.50005 0.50005 0 0 0 8 11.5 L 8 20 L 4 20 L 4 7.7871094 L 12 3.0800781 z M 9 12 L 15 12 L 15 20 L 9 20 L 9 12 z" fill="#ffffff"/>
</svg>